# xmcd
#
# Track frame offsets:
#	150
#	16737
#	36697
#	57965
#	73377
#
# Disc length: 1260 seconds
#
# Revision: 0
# Processed by: cddbd v1.5.1PL0 Copyright (c) Steve Scherf et al.
# Submitted via: EasyCDDAExtractor 8.0.2.1
#
DISCID=4604ea05
DTITLE=Stephen Cummings - Taken from Good Humour
DYEAR=1900
DGENRE=Latin
TTITLE0=Hell (You put me through)
TTITLE1=Ribbons of Darkness
TTITLE2=Family Affair
TTITLE3=Forever and a Day
TTITLE4=Somewhere where the heart is Nourished
EXTD=
EXTT0=
EXTT1=
EXTT2=
EXTT3=
EXTT4=
PLAYORDER=
